<?xml version="1.0" encoding="UTF-8" standalone="no"?>
<svg
   xmlns:dc="http://purl.org/dc/elements/1.1/"
   xmlns:cc="http://creativecommons.org/ns#"
   xmlns:rdf="http://www.w3.org/1999/02/22-rdf-syntax-ns#"
   xmlns:svg="http://www.w3.org/2000/svg"
   xmlns="http://www.w3.org/2000/svg"
   id="svg8"
   version="1.1"
   viewBox="0 0 279.99963 99.837967"
   height="99.837967mm"
   width="279.99963mm">
  <defs
     id="defs2">
    <clipPath
       clipPathUnits="userSpaceOnUse"
       id="clipPath30">
      <path
         d="m 24.095,359.229 69.271,-12.825 73.103,-41.041 30.78,-17.128 12.161,-22.504 -43.368,16.255 -53.011,9.638 -28.642,1.769 -25.651,-5.158 -16.673,-2.964 -17.97,-10.26 z"
         id="path28" />
    </clipPath>
    <linearGradient
       x1="0"
       y1="0"
       x2="1"
       y2="0"
       gradientUnits="userSpaceOnUse"
       gradientTransform="matrix(185.31552,0,0,-185.31552,24.094488,312.47992)"
       spreadMethod="pad"
       id="linearGradient46">
      <stop
         style="stop-opacity:1;stop-color:#a7a5a6"
         offset="0"
         id="stop36" />
      <stop
         style="stop-opacity:1;stop-color:#ffffff"
         offset="0.26300941"
         id="stop38" />
      <stop
         style="stop-opacity:1;stop-color:#ffffff"
         offset="0.805106"
         id="stop40" />
      <stop
         style="stop-opacity:1;stop-color:#ffffff"
         offset="0.95068596"
         id="stop42" />
      <stop
         style="stop-opacity:1;stop-color:#ffffff"
         offset="1"
         id="stop44" />
    </linearGradient>
    <clipPath
       clipPathUnits="userSpaceOnUse"
       id="clipPath56">
      <path
         d="M 0,595.276 H 841.89 V 0 H 0 Z"
         id="path54" />
    </clipPath>
    <clipPath
       clipPathUnits="userSpaceOnUse"
       id="clipPath68">
      <path
         d="m 637.523,410.087 -0.62,-0.006 c -2.113,-0.03 -4.251,-0.166 -6.399,-0.415 v 0 c -31.907,-3.701 -54.833,-30.701 -51.293,-60.346 v 0 c 40.425,1.922 76.798,-4.806 109.631,-16.979 v 0 c 4.953,9.185 7.692,19.306 6.353,30.222 v 0 c -3.424,27.459 -28.366,47.523 -57.392,47.524 v 0 c -0.094,0 -0.186,0 -0.28,0"
         id="path66" />
    </clipPath>
    <clipPath
       clipPathUnits="userSpaceOnUse"
       id="clipPath80">
      <path
         d="M 0,595.276 H 841.89 V 0 H 0 Z"
         id="path78" />
    </clipPath>
    <clipPath
       clipPathUnits="userSpaceOnUse"
       id="clipPath96">
      <path
         d="m 24.095,277.048 v -20.321 c 55.111,20.765 125.876,-11.602 183.535,-34.875 v 0 0.127 c 23.653,-9.572 47.711,-14.69 71.565,-15.739 v 0 43.56 c -24.039,8.312 -53.557,17.012 -75.518,25.878 v 0 l -0.007,-0.071 c -32.975,13.306 -69.178,24.973 -104.376,24.974 v 0 c -26.205,10e-4 -51.847,-6.463 -75.199,-23.533"
         id="path94" />
    </clipPath>
    <linearGradient
       x1="0"
       y1="0"
       x2="1"
       y2="0"
       gradientUnits="userSpaceOnUse"
       gradientTransform="matrix(315.25262,0,0,-315.25262,6.5972233,253.30843)"
       spreadMethod="pad"
       id="linearGradient110">
      <stop
         style="stop-opacity:1;stop-color:#1d5eb3"
         offset="0"
         id="stop102" />
      <stop
         style="stop-opacity:1;stop-color:#1d5eb3"
         offset="0.5"
         id="stop104" />
      <stop
         style="stop-opacity:1;stop-color:#1d5eb3"
         offset="0.74271365"
         id="stop106" />
      <stop
         style="stop-opacity:1;stop-color:#00adef"
         offset="1"
         id="stop108" />
    </linearGradient>
    <clipPath
       clipPathUnits="userSpaceOnUse"
       id="clipPath120">
      <path
         d="m 24.095,272.627 v -16.939 c 55.159,17.391 121.419,-22.991 178.365,-49.01 v 0 l 0.03,0.12 c 25.194,-11.514 51.013,-17.869 76.705,-19.503 v 0 53.743 c -26.399,1.402 -52.958,7.773 -78.857,19.597 v 0 l -0.022,-0.101 C 165.125,276.61 126.651,289.98 89.517,289.98 v 0 c -22.657,0 -44.812,-4.975 -65.422,-17.353"
         id="path118" />
    </clipPath>
    <linearGradient
       x1="0"
       y1="0"
       x2="1"
       y2="0"
       gradientUnits="userSpaceOnUse"
       gradientTransform="matrix(-672.52441,-2.244e-4,-2.244e-4,672.52441,679.12378,238.42786)"
       spreadMethod="pad"
       id="linearGradient134">
      <stop
         style="stop-opacity:1;stop-color:#1d5eb3"
         offset="0"
         id="stop126" />
      <stop
         style="stop-opacity:1;stop-color:#1d5eb3"
         offset="0.355509"
         id="stop128" />
      <stop
         style="stop-opacity:1;stop-color:#1d5eb3"
         offset="0.67337942"
         id="stop130" />
      <stop
         style="stop-opacity:1;stop-color:#00adef"
         offset="1"
         id="stop132" />
    </linearGradient>
    <clipPath
       clipPathUnits="userSpaceOnUse"
       id="clipPath144">
      <path
         d="m 24.095,374.209 v -18.167 c 65.456,0.39 144.076,-53.441 198.694,-88.526 v 0 l 0.045,0.082 c 18.078,-11.613 36.978,-20.609 56.361,-27.103 v 0 59.488 c -16.872,6.689 -33.34,15.203 -49.189,25.37 v 0 l -0.03,-0.069 c -13.319,8.556 -28.563,17.254 -44.932,25.168 v 0 -0.099 c -20.979,10.122 -43.773,18.984 -66.821,24.6 v 0 0.125 c -16.564,4.054 -33.228,6.44 -49.38,6.44 v 0 c -15.581,0 -30.678,-2.219 -44.748,-7.309"
         id="path142" />
    </clipPath>
    <linearGradient
       x1="0"
       y1="0"
       x2="1"
       y2="0"
       gradientUnits="userSpaceOnUse"
       gradientTransform="matrix(534.46832,0,0,-534.46832,-16.548344,305.01712)"
       spreadMethod="pad"
       id="linearGradient156">
      <stop
         style="stop-opacity:1;stop-color:#9b1523"
         offset="0"
         id="stop150" />
      <stop
         style="stop-opacity:1;stop-color:#9b1523"
         offset="0.13750722"
         id="stop152" />
      <stop
         style="stop-opacity:1;stop-color:#ed1c24"
         offset="1"
         id="stop154" />
    </linearGradient>
    <clipPath
       clipPathUnits="userSpaceOnUse"
       id="clipPath166">
      <path
         d="m 24.095,371.67 v -18.371 c 64.454,-3.15 145.365,-54.953 193.127,-93.8 v 0 l 0.023,0.06 c 19.582,-15.888 40.404,-28.092 61.95,-36.706 v 0 56.5 c -18.461,8.274 -36.324,19.235 -53.261,32.976 v 0 l -0.014,-0.077 c -41.03,33.409 -114.825,61.833 -174.001,61.833 v 0 c -9.742,0 -19.086,-0.77 -27.824,-2.415"
         id="path164" />
    </clipPath>
    <linearGradient
       x1="0"
       y1="0"
       x2="1"
       y2="0"
       gradientUnits="userSpaceOnUse"
       gradientTransform="matrix(0,308.70081,308.70081,0,131.32367,65.384178)"
       spreadMethod="pad"
       id="linearGradient178">
      <stop
         style="stop-opacity:1;stop-color:#9b1523"
         offset="0"
         id="stop172" />
      <stop
         style="stop-opacity:1;stop-color:#9b1523"
         offset="0.13750722"
         id="stop174" />
      <stop
         style="stop-opacity:1;stop-color:#ed1c24"
         offset="1"
         id="stop176" />
    </linearGradient>
    <clipPath
       clipPathUnits="userSpaceOnUse"
       id="clipPath188">
      <path
         d="M 0,595.276 H 841.89 V 0 H 0 Z"
         id="path186" />
    </clipPath>
    <clipPath
       clipPathUnits="userSpaceOnUse"
       id="clipPath200">
      <path
         d="m 362.516,248.971 c -15.638,-2.805 -33.486,3.094 -48.398,7.577 v 0 -66.888 c 2.472,-1.372 4.855,-2.119 7.074,-1.996 v 0 c 98.91,5.379 247.175,80.531 238.897,131.637 v 0 c -1.618,9.931 -6.382,14.013 -13.722,14.014 v 0 c -30.415,0.004 -105.102,-70.07 -183.851,-84.344"
         id="path198" />
    </clipPath>
    <linearGradient
       x1="0"
       y1="0"
       x2="1"
       y2="0"
       gradientUnits="userSpaceOnUse"
       gradientTransform="matrix(246.30341,0,0,-246.30341,314.11758,260.48297)"
       spreadMethod="pad"
       id="linearGradient216">
      <stop
         style="stop-opacity:1;stop-color:#00adef"
         offset="0"
         id="stop206" />
      <stop
         style="stop-opacity:1;stop-color:#1d5eb3"
         offset="0.25728635"
         id="stop208" />
      <stop
         style="stop-opacity:1;stop-color:#1d5eb3"
         offset="0.5"
         id="stop210" />
      <stop
         style="stop-opacity:1;stop-color:#1d5eb3"
         offset="0.74271365"
         id="stop212" />
      <stop
         style="stop-opacity:1;stop-color:#00adef"
         offset="1"
         id="stop214" />
    </linearGradient>
    <clipPath
       clipPathUnits="userSpaceOnUse"
       id="clipPath226">
      <path
         d="m 366.714,260.265 c 25.962,-1.52 52.119,1.49 77.513,9.006 v 0 c 2.816,0.957 5.693,1.849 8.525,2.667 v 0 c 26.373,8.816 51.789,22.474 75.337,40.604 v 0 c -11.095,2.745 -22.347,4.044 -33.581,4.045 v 0 c -46.484,0.002 -92.8,-22.23 -127.794,-56.322"
         id="path224" />
    </clipPath>
    <linearGradient
       x1="0"
       y1="0"
       x2="1"
       y2="0"
       gradientUnits="userSpaceOnUse"
       gradientTransform="matrix(161.37595,0,0,-161.37595,366.7142,288.23431)"
       spreadMethod="pad"
       id="linearGradient242">
      <stop
         style="stop-opacity:1;stop-color:#a7a5a6"
         offset="0"
         id="stop232" />
      <stop
         style="stop-opacity:1;stop-color:#ffffff"
         offset="0.26300941"
         id="stop234" />
      <stop
         style="stop-opacity:1;stop-color:#ffffff"
         offset="0.805106"
         id="stop236" />
      <stop
         style="stop-opacity:1;stop-color:#ffffff"
         offset="0.95068596"
         id="stop238" />
      <stop
         style="stop-opacity:1;stop-color:#ffffff"
         offset="1"
         id="stop240" />
    </linearGradient>
    <clipPath
       clipPathUnits="userSpaceOnUse"
       id="clipPath252">
      <path
         d="m 314.118,233.634 c 10.952,-2.458 22.01,-4.173 33.133,-5.119 v 0 c 5.821,11.208 12.35,21.783 19.463,31.75 v 0 l 3.601,4.912 c 4.557,6.088 9.362,11.947 14.375,17.49 v 0 c -23.685,-0.769 -47.405,2.391 -70.572,8.957 v 0 z"
         id="path250" />
    </clipPath>
    <linearGradient
       x1="0"
       y1="0"
       x2="1"
       y2="0"
       gradientUnits="userSpaceOnUse"
       gradientTransform="matrix(70.572021,0,0,-70.572021,314.11758,260.07034)"
       spreadMethod="pad"
       id="linearGradient264">
      <stop
         style="stop-opacity:1;stop-color:#9b1523"
         offset="0"
         id="stop258" />
      <stop
         style="stop-opacity:1;stop-color:#9b1523"
         offset="0.13750722"
         id="stop260" />
      <stop
         style="stop-opacity:1;stop-color:#ed1c24"
         offset="1"
         id="stop262" />
    </linearGradient>
    <clipPath
       clipPathUnits="userSpaceOnUse"
       id="clipPath274">
      <path
         d="m 452.752,271.938 c -2.81,-0.949 -5.663,-1.853 -8.51,-2.667 v 0 c -25.843,-7.631 -52.41,-10.669 -78.775,-8.965 v 0 c -13.672,-14.128 -25.843,-30.666 -36.041,-49.25 v 0 c 9.541,-1.838 19.201,-3.079 28.839,-3.586 v 0 c 62.107,-3.631 125.058,19.126 176.855,65.379 v 0 c 9.721,8.644 19.044,18.134 27.906,28.405 v 0 c -8.13,2.897 -16.087,5.657 -23.812,8.152 v 0 -0.049 c -3.72,1.222 -7.418,2.294 -11.125,3.185 v 0 c -23.548,-18.13 -48.995,-31.751 -75.337,-40.604"
         id="path272" />
    </clipPath>
    <linearGradient
       x1="0"
       y1="0"
       x2="1"
       y2="0"
       gradientUnits="userSpaceOnUse"
       gradientTransform="matrix(-199.66411,-138.95883,-138.95883,199.66411,543.08972,329.89899)"
       spreadMethod="pad"
       id="linearGradient290">
      <stop
         style="stop-opacity:1;stop-color:#00adef"
         offset="0"
         id="stop280" />
      <stop
         style="stop-opacity:1;stop-color:#1d5eb3"
         offset="0.25728635"
         id="stop282" />
      <stop
         style="stop-opacity:1;stop-color:#1d5eb3"
         offset="0.5"
         id="stop284" />
      <stop
         style="stop-opacity:1;stop-color:#1d5eb3"
         offset="0.74271365"
         id="stop286" />
      <stop
         style="stop-opacity:1;stop-color:#00adef"
         offset="1"
         id="stop288" />
    </linearGradient>
    <clipPath
       clipPathUnits="userSpaceOnUse"
       id="clipPath300">
      <path
         d="m 314.118,241.186 v -53.992 c 2.368,0.1 4.714,0.268 7.074,0.47 v 0 c 1.637,5.682 3.489,11.222 5.522,16.676 v 0 c 5.379,14.651 11.946,28.512 19.522,41.308 v 0 c -10.586,-2.317 -21.323,-3.758 -32.118,-4.462"
         id="path298" />
    </clipPath>
    <linearGradient
       x1="0"
       y1="0"
       x2="1"
       y2="0"
       gradientUnits="userSpaceOnUse"
       gradientTransform="matrix(-49.39999,-28.521097,-28.521097,49.39999,352.61014,234.60695)"
       spreadMethod="pad"
       id="linearGradient316">
      <stop
         style="stop-opacity:1;stop-color:#00adef"
         offset="0"
         id="stop306" />
      <stop
         style="stop-opacity:1;stop-color:#1d5eb3"
         offset="0.25728635"
         id="stop308" />
      <stop
         style="stop-opacity:1;stop-color:#1d5eb3"
         offset="0.5"
         id="stop310" />
      <stop
         style="stop-opacity:1;stop-color:#1d5eb3"
         offset="0.74271365"
         id="stop312" />
      <stop
         style="stop-opacity:1;stop-color:#00adef"
         offset="1"
         id="stop314" />
    </linearGradient>
    <clipPath
       clipPathUnits="userSpaceOnUse"
       id="clipPath326">
      <path
         d="m 314.118,214.612 c 5.058,-1.352 10.152,-2.554 15.278,-3.541 v 0 c 10.228,18.569 22.368,35.107 36.071,49.235 v 0 c -17.297,1.15 -34.502,4.341 -51.349,9.623 v 0 z"
         id="path324" />
    </clipPath>
    <linearGradient
       x1="0"
       y1="0"
       x2="1"
       y2="0"
       gradientUnits="userSpaceOnUse"
       gradientTransform="matrix(113.02458,81.948502,81.948502,-113.02458,246.79333,186.14758)"
       spreadMethod="pad"
       id="linearGradient338">
      <stop
         style="stop-opacity:1;stop-color:#9b1523"
         offset="0"
         id="stop332" />
      <stop
         style="stop-opacity:1;stop-color:#9b1523"
         offset="0.13750722"
         id="stop334" />
      <stop
         style="stop-opacity:1;stop-color:#ed1c24"
         offset="1"
         id="stop336" />
    </linearGradient>
    <clipPath
       clipPathUnits="userSpaceOnUse"
       id="clipPath348">
      <path
         d="m 498.893,352.477 c -7.909,-0.346 -15.719,-1.683 -23.505,-3.526 v 0 c 0,0 -4.96,-1.063 -8.628,-2.234 v 0 c -5.686,-1.686 -26.119,-10.189 -26.075,-10.317 v 0 c -7.896,-3.959 -15.763,-8.628 -23.451,-14.077 v 0 c -34.719,-24.58 -65.858,-65.312 -87.808,-111.484 v 0 c 14.576,28.787 28.278,33.448 61.412,56.867 v 0 c 23.175,16.418 62.34,27.557 86.142,31.42 v 0 c 94.501,13.416 278.338,-71.215 314.114,-116.323 v 0 c 0.212,0.298 0.603,0.394 0.797,0.695 v 0 C 768.02,227.406 646.529,352.678 508.715,352.691 v 0 c -3.272,0 -6.532,-0.07 -9.822,-0.214"
         id="path346" />
    </clipPath>
    <linearGradient
       x1="0"
       y1="0"
       x2="1"
       y2="0"
       gradientUnits="userSpaceOnUse"
       gradientTransform="matrix(301.52539,207.5218,207.5218,-301.52539,398.24228,110.8503)"
       spreadMethod="pad"
       id="linearGradient360">
      <stop
         style="stop-opacity:1;stop-color:#9b1523"
         offset="0"
         id="stop354" />
      <stop
         style="stop-opacity:1;stop-color:#9b1523"
         offset="0.13750722"
         id="stop356" />
      <stop
         style="stop-opacity:1;stop-color:#ed1c24"
         offset="1"
         id="stop358" />
    </linearGradient>
    <clipPath
       clipPathUnits="userSpaceOnUse"
       id="clipPath370">
      <path
         d="m 637.475,402.315 -0.167,-10e-4 -0.421,-0.004 c -1.793,-0.028 -3.607,-0.144 -5.429,-0.356 v 0 c -27.356,-3.172 -47.012,-26.321 -43.978,-51.738 v 0 c 34.659,1.649 65.845,-4.121 93.995,-14.557 v 0 c 4.247,7.875 6.595,16.551 5.446,25.911 v 0 c -2.934,23.544 -24.318,40.745 -49.204,40.746 v 0 c -0.081,0 -0.161,-10e-4 -0.242,-10e-4"
         id="path368" />
    </clipPath>
    <linearGradient
       x1="0"
       y1="0"
       x2="1"
       y2="0"
       gradientUnits="userSpaceOnUse"
       gradientTransform="matrix(100.07988,0.9505744,-0.9505744,100.07988,587.05084,368.11386)"
       spreadMethod="pad"
       id="linearGradient382">
      <stop
         style="stop-opacity:1;stop-color:#ed1c24"
         offset="0"
         id="stop376" />
      <stop
         style="stop-opacity:1;stop-color:#9b1523"
         offset="0.87073124"
         id="stop378" />
      <stop
         style="stop-opacity:1;stop-color:#9b1523"
         offset="1"
         id="stop380" />
    </linearGradient>
  </defs>
  <metadata
     id="metadata5">
    <rdf:RDF>
      <cc:Work
         rdf:about="">
        <dc:format>image/svg+xml</dc:format>
        <dc:type
           rdf:resource="http://purl.org/dc/dcmitype/StillImage" />
        <dc:title></dc:title>
      </cc:Work>
    </rdf:RDF>
  </metadata>
  <g
     transform="translate(15.267675,-78.50363)"
     id="layer1">
    <g
       transform="matrix(0.35277777,0,0,-0.35277777,41.511907,114.36229)"
       id="g20">
      <path
         id="path22"
         style="fill:#a7a5a6;fill-opacity:1;fill-rule:nonzero;stroke:none"
         d="M 0,0 H -66.821 V 97.068 H -160.95 V -177.36 h 94.129 v 101.3 H 0 v -101.3 H 94.15 V 97.068 H 0 Z" />
    </g>
    <g
       transform="matrix(0.35277777,0,0,-0.35277777,-23.767785,233.42246)"
       id="g24">
      <g
         clip-path="url(#clipPath30)"
         id="g26">
        <g
           id="g32">
          <g
             id="g34">
            <path
               id="path48"
               style="fill:url(#linearGradient46);stroke:none"
               d="m 24.095,359.229 69.271,-12.825 73.103,-41.041 30.78,-17.128 12.161,-22.504 -43.368,16.255 -53.011,9.638 -28.642,1.769 -25.651,-5.158 -16.673,-2.964 -17.97,-10.26 z" />
          </g>
        </g>
      </g>
    </g>
    <g
       transform="matrix(0.35277777,0,0,-0.35277777,-23.767785,233.42246)"
       id="g50">
      <g
         clip-path="url(#clipPath56)"
         id="g52">
        <g
           transform="translate(636.9032,410.0813)"
           id="g58">
          <path
             id="path60"
             style="fill:#a7a5a6;fill-opacity:1;fill-rule:nonzero;stroke:none"
             d="m 0,0 c -2.113,-0.031 -4.251,-0.167 -6.399,-0.416 -31.907,-3.7 -54.833,-30.7 -51.293,-60.345 40.424,1.922 76.797,-4.806 109.63,-16.979 4.954,9.184 7.693,19.305 6.354,30.222 C 54.856,-19.97 29.767,0.135 0.62,0.006 Z" />
        </g>
      </g>
    </g>
    <g
       transform="matrix(0.35277777,0,0,-0.35277777,-23.767785,233.42246)"
       id="g62">
      <g
         clip-path="url(#clipPath68)"
         id="g64">
        <g
           transform="translate(575.3807,409.4968)"
           id="g70">
          <path
             id="path72"
             style="fill:#a7a5a6;fill-opacity:1;fill-rule:nonzero;stroke:none"
             d="M 0,0 120.593,1.146 121.34,-77.514 0.747,-78.659 Z" />
        </g>
      </g>
    </g>
    <g
       transform="matrix(0.35277777,0,0,-0.35277777,-23.767785,233.42246)"
       id="g76"
       clip-path="url(#clipPath80)">
      <g
         id="g82"
         transform="translate(788.6346,350.511)">
        <path
           d="m 0,0 c 0,0 -33.823,22.542 -97.574,22.542 -30.319,0 -41.533,-7.766 -41.59,-17.878 -0.047,-8.477 7.414,-11.065 18.911,-14.738 10.616,-3.391 12.361,-5.912 35.852,-10.328 74.246,-13.608 113.561,-34.021 113.561,-90.781 0,-50.141 -44.319,-83.573 -123.621,-83.19 -93.304,0.393 -129.848,39.656 -129.848,39.656 l 25.761,49.854 c 0,0 41.888,-23.423 104.087,-23.423 30.318,0 56.077,10.5 47.039,19.048 -14.517,13.729 -8.944,14.383 -51.703,22.16 -54.423,8.944 -116.238,23.711 -116.622,89.798 -0.393,47.432 42.366,85.909 118.173,85.909 75.807,0 122.846,-26.038 122.846,-26.038 z"
           style="fill:#a7a5a6;fill-opacity:1;fill-rule:nonzero;stroke:none"
           id="path84" />
      </g>
      <g
         id="g86"
         transform="translate(428.0966,301.511)">
        <path
           d="m 0,0 h -24.886 v 76.418 l 0.545,0.572 H 1.681 C 28.868,76.99 44.723,62.268 44.723,37.929 44.723,13.565 28.868,0 0,0 m 35.219,133.051 h -149.198 v -274.429 h 93.733 v 85.731 h 47.89 c 35.734,0 58.753,8.358 76.361,24.328 16.069,14.573 24.894,41.214 24.894,69.789 0,60.134 -33.994,94.581 -93.68,94.581"
           style="fill:#a7a5a6;fill-opacity:1;fill-rule:nonzero;stroke:none"
           id="path88" />
      </g>
    </g>
    <g
       transform="matrix(0.35277777,0,0,-0.35277777,-23.767785,233.42246)"
       id="g90">
      <g
         clip-path="url(#clipPath96)"
         id="g92">
        <g
           id="g98">
          <g
             id="g100">
            <path
               id="path112"
               style="fill:url(#linearGradient110);stroke:none"
               d="m 24.095,277.048 v -20.321 c 55.111,20.765 125.876,-11.602 183.535,-34.875 v 0 0.127 c 23.653,-9.572 47.711,-14.69 71.565,-15.739 v 0 43.56 c -24.039,8.312 -53.557,17.012 -75.518,25.878 v 0 l -0.007,-0.071 c -32.975,13.306 -69.178,24.973 -104.376,24.974 v 0 c -26.205,10e-4 -51.847,-6.463 -75.199,-23.533" />
          </g>
        </g>
      </g>
    </g>
    <g
       transform="matrix(0.35277777,0,0,-0.35277777,-23.767785,233.42246)"
       id="g114">
      <g
         clip-path="url(#clipPath120)"
         id="g116">
        <g
           id="g122">
          <g
             id="g124">
            <path
               id="path136"
               style="fill:url(#linearGradient134);stroke:none"
               d="m 24.095,272.627 v -16.939 c 55.159,17.391 121.419,-22.991 178.365,-49.01 v 0 l 0.03,0.12 c 25.194,-11.514 51.013,-17.869 76.705,-19.503 v 0 53.743 c -26.399,1.402 -52.958,7.773 -78.857,19.597 v 0 l -0.022,-0.101 C 165.125,276.61 126.651,289.98 89.517,289.98 v 0 c -22.657,0 -44.812,-4.975 -65.422,-17.353" />
          </g>
        </g>
      </g>
    </g>
    <g
       transform="matrix(0.35277777,0,0,-0.35277777,-23.767785,233.42246)"
       id="g138">
      <g
         clip-path="url(#clipPath144)"
         id="g140">
        <g
           id="g146">
          <g
             id="g148">
            <path
               id="path158"
               style="fill:url(#linearGradient156);stroke:none"
               d="m 24.095,374.209 v -18.167 c 65.456,0.39 144.076,-53.441 198.694,-88.526 v 0 l 0.045,0.082 c 18.078,-11.613 36.978,-20.609 56.361,-27.103 v 0 59.488 c -16.872,6.689 -33.34,15.203 -49.189,25.37 v 0 l -0.03,-0.069 c -13.319,8.556 -28.563,17.254 -44.932,25.168 v 0 -0.099 c -20.979,10.122 -43.773,18.984 -66.821,24.6 v 0 0.125 c -16.564,4.054 -33.228,6.44 -49.38,6.44 v 0 c -15.581,0 -30.678,-2.219 -44.748,-7.309" />
          </g>
        </g>
      </g>
    </g>
    <g
       transform="matrix(0.35277777,0,0,-0.35277777,-23.767785,233.42246)"
       id="g160">
      <g
         clip-path="url(#clipPath166)"
         id="g162">
        <g
           id="g168">
          <g
             id="g170">
            <path
               id="path180"
               style="fill:url(#linearGradient178);stroke:none"
               d="m 24.095,371.67 v -18.371 c 64.454,-3.15 145.365,-54.953 193.127,-93.8 v 0 l 0.023,0.06 c 19.582,-15.888 40.404,-28.092 61.95,-36.706 v 0 56.5 c -18.461,8.274 -36.324,19.235 -53.261,32.976 v 0 l -0.014,-0.077 c -41.03,33.409 -114.825,61.833 -174.001,61.833 v 0 c -9.742,0 -19.086,-0.77 -27.824,-2.415" />
          </g>
        </g>
      </g>
    </g>
    <g
       transform="matrix(0.35277777,0,0,-0.35277777,-23.767785,233.42246)"
       id="g182">
      <g
         clip-path="url(#clipPath188)"
         id="g184">
        <g
           transform="translate(790.5526,182.3918)"
           id="g190">
          <path
             id="path192"
             style="fill:#a7a5a6;fill-opacity:1;fill-rule:nonzero;stroke:none"
             d="m 0,0 c 0.187,0.291 0.793,0.509 0.973,0.793 -28.166,41.203 -174.41,157.475 -303.944,133.208 -7.71,-1.596 -15.323,-3.796 -22.854,-6.589 0,0 -4.833,-1.752 -8.337,-3.397 -5.47,-2.41 -10.857,-5.197 -16.228,-8.301 -3.25,-1.819 -8.622,-5.275 -8.562,-5.368 -7.441,-4.957 -14.755,-10.639 -21.875,-17.041 C -412.841,64.433 -420.758,-0.593 -401.784,35.896 -335.536,163.297 -40.284,39.807 0,0" />
        </g>
      </g>
    </g>
    <g
       transform="matrix(0.35277777,0,0,-0.35277777,-23.767785,233.42246)"
       id="g194">
      <g
         clip-path="url(#clipPath200)"
         id="g196">
        <g
           id="g202">
          <g
             id="g204">
            <path
               id="path218"
               style="fill:url(#linearGradient216);stroke:none"
               d="m 362.516,248.971 c -15.638,-2.805 -33.486,3.094 -48.398,7.577 v 0 -66.888 c 2.472,-1.372 4.855,-2.119 7.074,-1.996 v 0 c 98.91,5.379 247.175,80.531 238.897,131.637 v 0 c -1.618,9.931 -6.382,14.013 -13.722,14.014 v 0 c -30.415,0.004 -105.102,-70.07 -183.851,-84.344" />
          </g>
        </g>
      </g>
    </g>
    <g
       transform="matrix(0.35277777,0,0,-0.35277777,-23.767785,233.42246)"
       id="g220">
      <g
         clip-path="url(#clipPath226)"
         id="g222">
        <g
           id="g228">
          <g
             id="g230">
            <path
               id="path244"
               style="fill:url(#linearGradient242);stroke:none"
               d="m 366.714,260.265 c 25.962,-1.52 52.119,1.49 77.513,9.006 v 0 c 2.816,0.957 5.693,1.849 8.525,2.667 v 0 c 26.373,8.816 51.789,22.474 75.337,40.604 v 0 c -11.095,2.745 -22.347,4.044 -33.581,4.045 v 0 c -46.484,0.002 -92.8,-22.23 -127.794,-56.322" />
          </g>
        </g>
      </g>
    </g>
    <g
       transform="matrix(0.35277777,0,0,-0.35277777,-23.767785,233.42246)"
       id="g246">
      <g
         clip-path="url(#clipPath252)"
         id="g248">
        <g
           id="g254">
          <g
             id="g256">
            <path
               id="path266"
               style="fill:url(#linearGradient264);stroke:none"
               d="m 314.118,233.634 c 10.952,-2.458 22.01,-4.173 33.133,-5.119 v 0 c 5.821,11.208 12.35,21.783 19.463,31.75 v 0 l 3.601,4.912 c 4.557,6.088 9.362,11.947 14.375,17.49 v 0 c -23.685,-0.769 -47.405,2.391 -70.572,8.957 v 0 z" />
          </g>
        </g>
      </g>
    </g>
    <g
       transform="matrix(0.35277777,0,0,-0.35277777,-23.767785,233.42246)"
       id="g268">
      <g
         clip-path="url(#clipPath274)"
         id="g270">
        <g
           id="g276">
          <g
             id="g278">
            <path
               id="path292"
               style="fill:url(#linearGradient290);stroke:none"
               d="m 452.752,271.938 c -2.81,-0.949 -5.663,-1.853 -8.51,-2.667 v 0 c -25.843,-7.631 -52.41,-10.669 -78.775,-8.965 v 0 c -13.672,-14.128 -25.843,-30.666 -36.041,-49.25 v 0 c 9.541,-1.838 19.201,-3.079 28.839,-3.586 v 0 c 62.107,-3.631 125.058,19.126 176.855,65.379 v 0 c 9.721,8.644 19.044,18.134 27.906,28.405 v 0 c -8.13,2.897 -16.087,5.657 -23.812,8.152 v 0 -0.049 c -3.72,1.222 -7.418,2.294 -11.125,3.185 v 0 c -23.548,-18.13 -48.995,-31.751 -75.337,-40.604" />
          </g>
        </g>
      </g>
    </g>
    <g
       transform="matrix(0.35277777,0,0,-0.35277777,-23.767785,233.42246)"
       id="g294">
      <g
         clip-path="url(#clipPath300)"
         id="g296">
        <g
           id="g302">
          <g
             id="g304">
            <path
               id="path318"
               style="fill:url(#linearGradient316);stroke:none"
               d="m 314.118,241.186 v -53.992 c 2.368,0.1 4.714,0.268 7.074,0.47 v 0 c 1.637,5.682 3.489,11.222 5.522,16.676 v 0 c 5.379,14.651 11.946,28.512 19.522,41.308 v 0 c -10.586,-2.317 -21.323,-3.758 -32.118,-4.462" />
          </g>
        </g>
      </g>
    </g>
    <g
       transform="matrix(0.35277777,0,0,-0.35277777,-23.767785,233.42246)"
       id="g320">
      <g
         clip-path="url(#clipPath326)"
         id="g322">
        <g
           id="g328">
          <g
             id="g330">
            <path
               id="path340"
               style="fill:url(#linearGradient338);stroke:none"
               d="m 314.118,214.612 c 5.058,-1.352 10.152,-2.554 15.278,-3.541 v 0 c 10.228,18.569 22.368,35.107 36.071,49.235 v 0 c -17.297,1.15 -34.502,4.341 -51.349,9.623 v 0 z" />
          </g>
        </g>
      </g>
    </g>
    <g
       transform="matrix(0.35277777,0,0,-0.35277777,-23.767785,233.42246)"
       id="g342">
      <g
         clip-path="url(#clipPath348)"
         id="g344">
        <g
           id="g350">
          <g
             id="g352">
            <path
               id="path362"
               style="fill:url(#linearGradient360);stroke:none"
               d="m 498.893,352.477 c -7.909,-0.346 -15.719,-1.683 -23.505,-3.526 v 0 c 0,0 -4.96,-1.063 -8.628,-2.234 v 0 c -5.686,-1.686 -26.119,-10.189 -26.075,-10.317 v 0 c -7.896,-3.959 -15.763,-8.628 -23.451,-14.077 v 0 c -34.719,-24.58 -65.858,-65.312 -87.808,-111.484 v 0 c 14.576,28.787 28.278,33.448 61.412,56.867 v 0 c 23.175,16.418 62.34,27.557 86.142,31.42 v 0 c 94.501,13.416 278.338,-71.215 314.114,-116.323 v 0 c 0.212,0.298 0.603,0.394 0.797,0.695 v 0 C 768.02,227.406 646.529,352.678 508.715,352.691 v 0 c -3.272,0 -6.532,-0.07 -9.822,-0.214" />
          </g>
        </g>
      </g>
    </g>
    <g
       transform="matrix(0.35277777,0,0,-0.35277777,-23.767785,233.42246)"
       id="g364">
      <g
         clip-path="url(#clipPath370)"
         id="g366">
        <g
           id="g372">
          <g
             id="g374">
            <path
               id="path384"
               style="fill:url(#linearGradient382);stroke:none"
               d="m 637.475,402.315 -0.167,-10e-4 -0.421,-0.004 c -1.793,-0.028 -3.607,-0.144 -5.429,-0.356 v 0 c -27.356,-3.172 -47.012,-26.321 -43.978,-51.738 v 0 c 34.659,1.649 65.845,-4.121 93.995,-14.557 v 0 c 4.247,7.875 6.595,16.551 5.446,25.911 v 0 c -2.934,23.544 -24.318,40.745 -49.204,40.746 v 0 c -0.081,0 -0.161,-10e-4 -0.242,-10e-4" />
          </g>
        </g>
      </g>
    </g>
  </g>
</svg>
